<svg xmlns="http://www.w3.org/2000/svg" xmlns:xlink="http://www.w3.org/1999/xlink" width="112.5" height="87.5" viewBox="0 0 112.5 87.5"><defs><style>.a{fill:url(#a);}</style><linearGradient id="a" x1="0.5" x2="0.5" y2="1" gradientUnits="objectBoundingBox"><stop offset="0" stop-color="#901827"/><stop offset="0.231" stop-color="#711c3f"/><stop offset="0.564" stop-color="#4b225e"/><stop offset="0.832" stop-color="#342571"/><stop offset="1" stop-color="#2c2778"/></linearGradient></defs><path class="a" d="M46.856-81.25H-46.856a9.382,9.382,0,0,0-9.394,9.375v68.75A9.382,9.382,0,0,0-46.856,6.25H46.856A9.382,9.382,0,0,0,56.25-3.125v-68.75A9.382,9.382,0,0,0,46.856-81.25Zm-92.539,9.375H45.684A1.175,1.175,0,0,1,46.856-70.7v8.2H-46.856v-8.2A1.175,1.175,0,0,1-45.684-71.875ZM45.684-3.125H-45.684A1.175,1.175,0,0,1-46.856-4.3V-37.5H46.856V-4.3A1.175,1.175,0,0,1,45.684-3.125ZM-18.75-22.656A2.351,2.351,0,0,0-21.094-25H-35.156A2.351,2.351,0,0,0-37.5-22.656v7.813A2.351,2.351,0,0,0-35.156-12.5h14.063a2.351,2.351,0,0,0,2.344-2.344Zm37.5,0A2.351,2.351,0,0,0,16.406-25H-10.156A2.351,2.351,0,0,0-12.5-22.656v7.813A2.351,2.351,0,0,0-10.156-12.5H16.406a2.351,2.351,0,0,0,2.344-2.344Z" transform="translate(56.25 81.25)"/></svg>