<svg xmlns="http://www.w3.org/2000/svg" xmlns:xlink="http://www.w3.org/1999/xlink" width="124.987" height="87.481" viewBox="0 0 124.987 87.481"><defs><style>.a{fill:url(#a);}</style><linearGradient id="a" x1="0.5" x2="0.5" y2="1" gradientUnits="objectBoundingBox"><stop offset="0" stop-color="#901827"/><stop offset="0.231" stop-color="#711c3f"/><stop offset="0.564" stop-color="#4b225e"/><stop offset="0.832" stop-color="#342571"/><stop offset="1" stop-color="#2c2778"/></linearGradient></defs><path class="a" d="M56.738-20.84a22.914,22.914,0,0,0,0-8.32l5.039-2.91a1.414,1.414,0,0,0,.644-1.66,29.307,29.307,0,0,0-6.484-11.211,1.424,1.424,0,0,0-1.758-.274L49.141-42.3a22.929,22.929,0,0,0-7.207-4.16v-5.82a1.422,1.422,0,0,0-1.113-1.387,29.469,29.469,0,0,0-12.93,0,1.422,1.422,0,0,0-1.113,1.387v5.82A22.929,22.929,0,0,0,19.57-42.3l-5.039-2.91a1.428,1.428,0,0,0-1.758.274A29.31,29.31,0,0,0,6.289-33.731a1.438,1.438,0,0,0,.644,1.66l5.039,2.91a22.914,22.914,0,0,0,0,8.32L6.934-17.93a1.414,1.414,0,0,0-.644,1.66A29.457,29.457,0,0,0,12.774-5.059a1.424,1.424,0,0,0,1.758.274L19.57-7.7a22.929,22.929,0,0,0,7.207,4.16v5.82a1.422,1.422,0,0,0,1.113,1.387,29.469,29.469,0,0,0,12.93,0,1.422,1.422,0,0,0,1.113-1.387v-5.82A22.929,22.929,0,0,0,49.141-7.7l5.039,2.91a1.428,1.428,0,0,0,1.758-.274,29.307,29.307,0,0,0,6.484-11.211,1.438,1.438,0,0,0-.644-1.66ZM34.375-15.527A9.482,9.482,0,0,1,24.9-25a9.494,9.494,0,0,1,9.473-9.473A9.494,9.494,0,0,1,43.848-25,9.482,9.482,0,0,1,34.375-15.527ZM-43.75-43.75a12.512,12.512,0,0,0,12.5-12.5,12.512,12.512,0,0,0-12.5-12.5,12.512,12.512,0,0,0-12.5,12.5A12.512,12.512,0,0,0-43.75-43.75ZM0-37.5c.371,0,.723-.1,1.094-.117A36.005,36.005,0,0,1,8.184-49.18a7.7,7.7,0,0,1,5.644-2.461,7.508,7.508,0,0,1,3.828,1.035l1.543.9c.156-.1.313-.176.469-.274a21.618,21.618,0,0,0,2.188-9.375A21.864,21.864,0,0,0-.019-81.231,21.831,21.831,0,0,0-21.875-59.375,21.864,21.864,0,0,0,0-37.5ZM20.547.488c-.449-.234-.9-.508-1.328-.762-1.6.938-2.988,1.914-5.371,1.914A7.763,7.763,0,0,1,8.2-.82,35.614,35.614,0,0,1,.352-14.414c-2.09-6.738,4.863-9.707,5.039-9.824q-.029-.762,0-1.524l-1.543-.9a7.958,7.958,0,0,1-1.914-1.582c-.645.039-1.27.117-1.914.117A30.833,30.833,0,0,1-13.359-31.25h-1.621A22.51,22.51,0,0,0-37.5-8.75v5.625A9.377,9.377,0,0,0-28.125,6.25H21.758a7.52,7.52,0,0,1-1.211-3.965ZM-28.691-33.867A12.463,12.463,0,0,0-37.5-37.5H-50A12.512,12.512,0,0,0-62.5-25v6.25a6.243,6.243,0,0,0,6.25,6.25h12.871A28.641,28.641,0,0,1-28.691-33.867Z" transform="translate(62.5 81.231)"/></svg>