<svg xmlns="http://www.w3.org/2000/svg" xmlns:xlink="http://www.w3.org/1999/xlink" width="125" height="100" viewBox="0 0 125 100"><defs><style>.a{fill:url(#a);}</style><linearGradient id="a" x1="0.5" x2="0.5" y2="1" gradientUnits="objectBoundingBox"><stop offset="0" stop-color="#901827"/><stop offset="0.231" stop-color="#711c3f"/><stop offset="0.564" stop-color="#4b225e"/><stop offset="0.832" stop-color="#342571"/><stop offset="1" stop-color="#2c2778"/></linearGradient></defs><path class="a" d="M-12.5-21.875h0c0-3.16.262-1.705-16.611-35.451a9.382,9.382,0,0,0-16.772,0C-62.9-23.291-62.5-24.936-62.5-21.875h0c0,8.629,11.193,15.625,25,15.625S-12.5-13.246-12.5-21.875Zm-25-31.25L-23.437-25H-51.562Zm100,31.25c0-3.16.262-1.705-16.611-35.451a9.382,9.382,0,0,0-16.772,0C12.1-23.291,12.5-24.936,12.5-21.875h0c0,8.629,11.193,15.625,25,15.625s25-7,25-15.625ZM23.438-25,37.5-53.125,51.563-25ZM40.625,0H6.25V-57.568A15.637,15.637,0,0,0,15.31-68.75H40.625a3.124,3.124,0,0,0,3.125-3.125v-6.25a3.124,3.124,0,0,0-3.125-3.125H12.43A15.55,15.55,0,0,0,0-87.5a15.55,15.55,0,0,0-12.43,6.25h-28.2a3.124,3.124,0,0,0-3.125,3.125v6.25a3.124,3.124,0,0,0,3.125,3.125H-15.31A15.636,15.636,0,0,0-6.25-57.568V0H-40.625A3.124,3.124,0,0,0-43.75,3.125v6.25A3.124,3.124,0,0,0-40.625,12.5h81.25A3.124,3.124,0,0,0,43.75,9.375V3.125A3.124,3.124,0,0,0,40.625,0Z" transform="translate(62.5 87.5)"/></svg>