<svg id="Capa_1" data-name="Capa 1" xmlns="http://www.w3.org/2000/svg" xmlns:xlink="http://www.w3.org/1999/xlink" viewBox="0 0 125 100"><defs><style>.cls-1{fill:url(#Degradado_sin_nombre);}</style><linearGradient id="Degradado_sin_nombre" x1="-184.42" y1="298.93" x2="-184.42" y2="297.93" gradientTransform="matrix(96.85, 0, 0, -96.88, 17924.7, 28960.38)" gradientUnits="userSpaceOnUse"><stop offset="0" stop-color="#901827"/><stop offset="0.23" stop-color="#711c3f"/><stop offset="0.56" stop-color="#4b225e"/><stop offset="0.83" stop-color="#342571"/><stop offset="1" stop-color="#2c2778"/></linearGradient></defs><title>c5</title><path class="cls-1" d="M79.72,31.69C76.89,14.25,70.21,2,62.44,2S48,14.25,45.15,31.69Zm-36,18.75a121.39,121.39,0,0,0,.64,12.5H80.52a121.4,121.4,0,0,0,.65-12.5,121.26,121.26,0,0,0-.65-12.5H44.33A121.25,121.25,0,0,0,43.69,50.44Zm63.42-18.75A48.57,48.57,0,0,0,76.25,4c4.76,6.6,8,16.55,9.76,27.66ZM48.61,4A48.51,48.51,0,0,0,17.77,31.69H38.86c1.7-11.11,5-21,9.75-27.66ZM109.2,37.94H86.8c.41,4.1.64,8.3.64,12.5s-.23,8.4-.64,12.5h22.38a48.46,48.46,0,0,0,1.68-12.5A49.32,49.32,0,0,0,109.2,37.94ZM37.44,50.44c0-4.2.23-8.4.64-12.5H15.68a47.34,47.34,0,0,0,0,25H38.06C37.67,58.84,37.44,54.64,37.44,50.44Zm7.71,18.75C48,86.63,54.66,98.88,62.44,98.88S76.89,86.63,79.72,69.19ZM76.27,96.84a48.6,48.6,0,0,0,30.86-27.65H86C84.31,80.3,81,90.24,76.27,96.84ZM17.77,69.19A48.5,48.5,0,0,0,48.63,96.84c-4.77-6.6-8.05-16.54-9.77-27.65Z"/></svg>