<svg xmlns="http://www.w3.org/2000/svg" xmlns:xlink="http://www.w3.org/1999/xlink" width="125" height="100" viewBox="0 0 125 100"><defs><style>.a{fill:url(#a);}</style><linearGradient id="a" x1="0.5" x2="0.5" y2="1" gradientUnits="objectBoundingBox"><stop offset="0" stop-color="#901827"/><stop offset="0.231" stop-color="#711c3f"/><stop offset="0.564" stop-color="#4b225e"/><stop offset="0.832" stop-color="#342571"/><stop offset="1" stop-color="#2c2778"/></linearGradient></defs><path class="a" d="M-12.689-36.4a3.125,3.125,0,0,0,4.42,0l2.209-2.209a3.125,3.125,0,0,0,0-4.42L-13.037-50l6.975-6.977a3.125,3.125,0,0,0,0-4.42l-2.209-2.209a3.125,3.125,0,0,0-4.42,0L-24.086-52.211a3.125,3.125,0,0,0,0,4.42ZM6.063-38.6l2.209,2.209a3.125,3.125,0,0,0,4.42,0L24.086-47.789a3.125,3.125,0,0,0,0-4.42L12.691-63.6a3.125,3.125,0,0,0-4.42,0L6.063-61.395a3.125,3.125,0,0,0,0,4.42L13.037-50,6.063-43.023A3.125,3.125,0,0,0,6.063-38.6ZM59.375-6.25H12.02A6.157,6.157,0,0,1,5.625,0H-6.25a6.632,6.632,0,0,1-6.4-6.25H-59.375A3.134,3.134,0,0,0-62.5-3.125V0A12.537,12.537,0,0,0-50,12.5H50A12.537,12.537,0,0,0,62.5,0V-3.125A3.134,3.134,0,0,0,59.375-6.25ZM50-78.125A9.4,9.4,0,0,0,40.625-87.5h-81.25A9.4,9.4,0,0,0-50-78.125V-12.5H50ZM37.5-25h-75V-75h75Z" transform="translate(62.5 87.5)"/></svg>