<svg xmlns="http://www.w3.org/2000/svg" width="195.134" height="44.5" viewBox="0 0 195.134 44.5"><defs><style>.a{fill:#fff;}</style></defs><g transform="translate(-80.513 -23.577)"><path class="a" d="M193.5,30.112h5.82V48.04l6.441-7.451h7.14l-7.489,8.5,7.683,10.36h-7.334L199.4,49.9h-.078v9.546H193.5Z"/><path class="a" d="M215.075,30.112h5.82V48.04l6.441-7.451h7.14l-7.489,8.5,7.683,10.36h-7.334L220.973,49.9H220.9v9.546h-5.82Z"/><path class="a" d="M248.485,57.083h-.078a5.471,5.471,0,0,1-2.58,2.172,8.871,8.871,0,0,1-3.4.66,8.736,8.736,0,0,1-2.541-.37,6.392,6.392,0,0,1-2.154-1.1,5.352,5.352,0,0,1-1.474-1.823,5.565,5.565,0,0,1-.543-2.523,5.776,5.776,0,0,1,.6-2.756,5.4,5.4,0,0,1,1.63-1.863,8.073,8.073,0,0,1,2.347-1.144,17.14,17.14,0,0,1,2.736-.6,25.979,25.979,0,0,1,2.833-.231q1.416-.039,2.619-.04a3.024,3.024,0,0,0-1.106-2.464,3.988,3.988,0,0,0-2.619-.911,5.7,5.7,0,0,0-2.62.6,7.17,7.17,0,0,0-2.114,1.647l-3.1-3.18a10.652,10.652,0,0,1,3.8-2.27,13.55,13.55,0,0,1,4.5-.758,11.743,11.743,0,0,1,4.21.641,6.123,6.123,0,0,1,2.638,1.881,7.262,7.262,0,0,1,1.378,3.047,20.04,20.04,0,0,1,.388,4.171v9.585h-5.355Zm-1.435-5.9c-.441,0-.99.019-1.65.059a8.357,8.357,0,0,0-1.9.33,4.238,4.238,0,0,0-1.552.814,1.881,1.881,0,0,0-.641,1.514,1.664,1.664,0,0,0,.893,1.552,3.734,3.734,0,0,0,1.862.505,5.847,5.847,0,0,0,1.649-.234,4.833,4.833,0,0,0,1.417-.66,3.2,3.2,0,0,0,.99-1.085,3.142,3.142,0,0,0,.368-1.552V51.183Z"/><path class="a" d="M263.307,30.112v13.04h.078a3.491,3.491,0,0,1,.659-1.088,5.162,5.162,0,0,1,1.126-.969,6.143,6.143,0,0,1,1.553-.7,6.7,6.7,0,0,1,1.94-.271,8.04,8.04,0,0,1,3.569.678,5.169,5.169,0,0,1,2.115,1.884,7.618,7.618,0,0,1,1.028,2.832,21.519,21.519,0,0,1,.272,3.531v10.4h-5.82V50.214c0-.545-.02-1.106-.059-1.689a5.3,5.3,0,0,0-.349-1.61,2.5,2.5,0,0,0-2.619-1.669,3.586,3.586,0,0,0-1.824.408,2.773,2.773,0,0,0-1.067,1.085,4.42,4.42,0,0,0-.485,1.533,13.177,13.177,0,0,0-.117,1.786v9.391h-5.82V30.112Z"/><path class="a" d="M80.528,46.139c0-.1-.015-.207-.015-.312s.014-.207.015-.312Zm16.5.162a5.38,5.38,0,1,0-5.38,5.379A5.385,5.385,0,0,0,97.025,46.3ZM113.88,35.184a11.051,11.051,0,0,1,5.4,1.406V30.96a22.174,22.174,0,0,0-33.041,0V36.59A11.111,11.111,0,0,1,102.763,46.3,11.117,11.117,0,0,1,113.88,35.184ZM125,46.139c0-.1.015-.207.015-.312S125,45.62,125,45.515ZM113.88,57.418A11.117,11.117,0,0,1,102.763,46.3,11.116,11.116,0,0,1,80.6,47.518a22.227,22.227,0,0,0,44.329,0A11.116,11.116,0,0,1,113.88,57.418ZM108.5,46.3a5.38,5.38,0,1,0,5.38-5.379A5.385,5.385,0,0,0,108.5,46.3ZM86.242,30.926v-6.6H80.528V45.2A22.159,22.159,0,0,1,86.242,30.926ZM125,45.2V24.329h-5.714v6.6A22.159,22.159,0,0,1,125,45.2Z"/><path class="a" d="M139.183,31.908h10.27a26.057,26.057,0,0,1,3.6.252,9.834,9.834,0,0,1,3.248,1.012,6.227,6.227,0,0,1,2.334,2.12,6.5,6.5,0,0,1,.894,3.617,5.775,5.775,0,0,1-1.3,3.871,7.161,7.161,0,0,1-3.442,2.2v.079a7.871,7.871,0,0,1,2.47.758,6.611,6.611,0,0,1,1.906,1.439,6.14,6.14,0,0,1,1.225,2.042,7.181,7.181,0,0,1,.428,2.489,6.626,6.626,0,0,1-.933,3.638,7.349,7.349,0,0,1-2.412,2.353,10.57,10.57,0,0,1-3.326,1.284,17.757,17.757,0,0,1-3.676.389H139.183Zm6.068,11.008h4.4a6.163,6.163,0,0,0,1.381-.156,3.816,3.816,0,0,0,1.225-.5,2.647,2.647,0,0,0,.876-.934,2.812,2.812,0,0,0,.33-1.4,2.545,2.545,0,0,0-.369-1.42,2.6,2.6,0,0,0-.953-.876,4.6,4.6,0,0,0-1.323-.447,8.013,8.013,0,0,0-1.439-.136h-4.124Zm0,11.4H150.7a6.692,6.692,0,0,0,1.42-.157,3.726,3.726,0,0,0,1.3-.544,3.088,3.088,0,0,0,.953-1.011,2.927,2.927,0,0,0,.37-1.517,2.436,2.436,0,0,0-.486-1.576,3.1,3.1,0,0,0-1.226-.914,6.3,6.3,0,0,0-1.6-.428,11.967,11.967,0,0,0-1.6-.116h-4.59Z"/><path class="a" d="M164.623,34.591a3.387,3.387,0,1,1,.992,2.393A3.263,3.263,0,0,1,164.623,34.591Zm.467,5.952h5.835V59.448H165.09Z"/><path class="a" d="M189.362,45.211h-5.135v6.3a11.588,11.588,0,0,0,.079,1.419,2.861,2.861,0,0,0,.349,1.109,1.767,1.767,0,0,0,.837.72,3.7,3.7,0,0,0,1.5.252,10.047,10.047,0,0,0,1.225-.1,2.073,2.073,0,0,0,1.147-.447v4.862a8.848,8.848,0,0,1-2.023.467,18.6,18.6,0,0,1-2.061.117,11.237,11.237,0,0,1-2.723-.311,6.234,6.234,0,0,1-2.179-.992,4.649,4.649,0,0,1-1.458-1.77,6.054,6.054,0,0,1-.525-2.646V45.211h-3.735V40.543h3.735v-5.6h5.834v5.6h5.135Z"/></g></svg>