<svg xmlns="http://www.w3.org/2000/svg" xmlns:xlink="http://www.w3.org/1999/xlink" width="96.856" height="96.875" viewBox="0 0 96.856 96.875"><defs><style>.a{fill:url(#a);}</style><linearGradient id="a" x1="0.5" x2="0.5" y2="1" gradientUnits="objectBoundingBox"><stop offset="0" stop-color="#901827"/><stop offset="0.231" stop-color="#711c3f"/><stop offset="0.564" stop-color="#4b225e"/><stop offset="0.832" stop-color="#342571"/><stop offset="1" stop-color="#2c2778"/></linearGradient></defs><path class="a" d="M17.285-56.25C14.453-73.691,7.773-85.937,0-85.937S-14.453-73.691-17.285-56.25ZM-18.75-37.5A122.442,122.442,0,0,0-18.106-25H18.086a122.386,122.386,0,0,0,.645-12.5A122.386,122.386,0,0,0,18.086-50H-18.106A122.442,122.442,0,0,0-18.75-37.5ZM44.668-56.25A48.539,48.539,0,0,0,13.809-83.906c4.766,6.6,8.047,16.543,9.766,27.656Zm-58.5-27.656A48.506,48.506,0,0,0-44.668-56.25h21.094C-21.875-67.363-18.594-77.3-13.828-83.906ZM46.758-50h-22.4c.41,4.1.644,8.3.644,12.5s-.234,8.4-.644,12.5H46.738a48.02,48.02,0,0,0,1.68-12.5A48.863,48.863,0,0,0,46.758-50ZM-25-37.5c0-4.2.234-8.4.644-12.5h-22.4a48.87,48.87,0,0,0-1.68,12.5A48.87,48.87,0,0,0-46.758-25h22.383C-24.766-29.1-25-33.3-25-37.5Zm7.715,18.75C-14.453-1.309-7.773,10.938,0,10.938S14.453-1.309,17.285-18.75ZM13.828,8.906A48.585,48.585,0,0,0,44.687-18.75H23.594C21.875-7.637,18.594,2.3,13.828,8.906Zm-58.5-27.656A48.539,48.539,0,0,0-13.809,8.906c-4.766-6.6-8.047-16.543-9.766-27.656Z" transform="translate(48.438 85.938)"/></svg>